<svg width="668" height="244" viewBox="0 0 668 244" fill="none" xmlns="http://www.w3.org/2000/svg">
<path d="M133 243C133 243 132.324 211.29 106.403 201.997C75.1498 190.79 21.2366 223.835 4.10606 193.169C-14.7225 159.453 58.6993 133.27 46.6916 96.0659C36.0464 63.077 -2.83182 89.0953 17.0677 114.185C32.9771 134.237 61.3918 130.216 81.8168 118.137C102.904 104.395 114.96 91.141 111.957 60.2887C108.204 21.7234 113.834 9.08986 130.506 1" stroke="#4756DF" stroke-miterlimit="10" stroke-linecap="round"/>
<path d="M645.439 136.247C633.01 119.738 615.936 99.5111 630.407 78.4464C648.515 52.0912 684.933 81.5602 656.527 101.399C624.483 123.776 577.672 61.3908 550.992 89.2544C526.728 114.595 574.325 156.352 572.869 189.462C571.661 216.929 542 227 542 227" stroke="#FFBE21" stroke-miterlimit="10" stroke-linecap="round"/>
<path d="M531.349 30.3123C503.859 8.44564 466.291 59.4636 433.042 60.9577C405.46 62.1975 392.768 33.6103 392.768 33.6103" stroke="#FFBE21" stroke-miterlimit="10" stroke-linecap="round"/>
</svg>
