<svg id="Layer_1" data-name="Layer 1" xmlns="http://www.w3.org/2000/svg" width="56" height="56" viewBox="0 0 56 56">
  <title>MVP Logo</title>
  <g>
    <path d="M54.07,22.26h0L54,22.17l-.22-.28-.14-.15a2,2,0,0,0-.19-.22l-.16-.17-.18-.17L52.92,21a1.07,1.07,0,0,0-.16-.14l-.22-.2,0,0c-.22-.18-.45-.35-.68-.51l0,0-.33-.21-.07,0-.34-.19-.07,0-.37-.19h0a9.38,9.38,0,0,0-4.1-.93A9.51,9.51,0,0,0,38.9,33.74h0l.08.09a3,3,0,0,0,.22.28l.13.15c.06.08.13.15.19.22l.17.17.17.17.19.18.16.14.22.2,0,0c.22.18.45.35.68.51l0,0,.33.21.08,0,.33.19.08,0,.36.19h0A9.51,9.51,0,0,0,54.07,22.26ZM42.68,28A3.68,3.68,0,0,1,43,26.4h0a3.8,3.8,0,0,1,3.45-2.2h.43l.26,0,.23,0,.3.09a1.88,1.88,0,0,1,.3.12l.18.08.27.15.13.08a2.48,2.48,0,0,1,.36.28l.07.06c.11.1.21.2.31.31l0,0a3.6,3.6,0,0,1,.56.87h0a3.81,3.81,0,0,1,0,3.21h0a3.79,3.79,0,0,1-3.44,2.2h-.44l-.26,0-.22,0-.3-.09a1.66,1.66,0,0,1-.31-.12l-.18-.08-.27-.15-.12-.08a3.27,3.27,0,0,1-.37-.28L44,30.83c-.11-.1-.21-.2-.31-.31l0,0a3.63,3.63,0,0,1-.57-.87h0A3.79,3.79,0,0,1,42.68,28Z" fill="#231f20"/>
    <g>
      <rect x="18.19" y="19.33" width="5.85" height="17.33" rx="0.64" fill="#231f20"/>
      <path d="M24,21.72h0a3.64,3.64,0,0,1,3.63-2.39h0a.55.55,0,0,1,.53.56v4.76a.55.55,0,0,1-.62.55h-.23c-1.68,0-3.35.78-3.35,3Z" fill="#231f20"/>
    </g>
    <rect x="29.59" y="19.33" width="5.85" height="17.33" rx="0.64" fill="#231f20"/>
    <path d="M9.51,31.81a3.81,3.81,0,1,1,3.07-6.06.63.63,0,0,0,1,.07l3.15-3.15a.65.65,0,0,0,0-.87,9.51,9.51,0,1,0,0,12.4.65.65,0,0,0,0-.87l-3.15-3.15a.64.64,0,0,0-1,.07A3.81,3.81,0,0,1,9.51,31.81Z" fill="#231f20"/>
  </g>
</svg>
