<svg id="Layer_1" data-name="Layer 1" xmlns="http://www.w3.org/2000/svg" width="1405.9" height="2969.86" viewBox="0 0 1405.9 2969.86">
  <title>lines-32</title>
  <path d="M386.32-58.74c-50.19,89.17-144,130-241.79,142.06C82.53,91,24.12,73.72-15.72,23.7c-105.09-132,100.21-268.85,156.43-95.32C204.1,124.1-183.57,261.83-84.15,439.19,6.28,600.5,291,426.68,456,485.63,519.3,508.24,561.71,562,582,624.57c13.12,40.48,17.08,83.95,7.85,125.69-6.06,27.39-15.72,54.16-29.75,78.5-23.51,40.77-59.6,72.47-104.11,88.37-165,59-449.71-114.87-540.14,46.43-58.88,105,58,204.47,122.31,273.36,37.53,40.23,77.21,83.1,97.71,135,19.5,49.41,13.92,124-28,160.93-70.64,62.17-168.85-15.4-150.59-99.48,4.35-20,14.36-38.42,27-54.35,40.65-51,100-67.39,163-59.27,156.11,20.14,264.84,163,299,308.24,36.89,156.9-23.94,303.73-132.5,416.8-71.71,74.7-161.94,127.68-238.8,196.46-38.66,34.6-74.1,73.34-99.87,118.64-29.86,52.46-44,112.38-70,166.69" fill="none" stroke="#3ec1f3" stroke-linecap="round" stroke-miterlimit="10" stroke-width="3.52"/>
  <path d="M1545.07,2223.82c43.79-24.27,84.54-75.22,66.91-126.75-17-49.59-70.45-79.56-118.48-92.24-75.71-20-162.46-5.89-227.19,38.46-87.68,60.06-118.14,167.82-148.24,263.68-37.89,120.66-63.84,248.31-127.21,359-87.29,152.45-231.54,276.13-404.81,316.33-138.73,32.19-270.35,5.52-405-34.79-90.41-27.08-193.78-57.66-279.5,1.17" fill="none" stroke="#ffbe21" stroke-linecap="round" stroke-miterlimit="10" stroke-width="3.52"/>
  <path d="M1064.55,306.91c-43.42,94.31-28.82,250.68,83,291.93,123.9,45.75,339.86-83,406.73,39.31,43.32,79.24-44.6,152.92-93.47,204.11-38.9,40.76-86.23,93.54-85.12,153.71.8,43.47,33.85,91.45,81.6,86.79,63.63-6.21,76.67-87.63,42.09-132-42.22-54.19-120-61.15-180.83-38.21-97.82,36.88-126.9,159.82-116.78,253.64,12.87,119.34,85.2,224.7,200.46,262.21,57.28,18.64,115.73,38.88,163.4,76.95,49.07,39.19,82.55,97.1,98,157.56" fill="none" stroke="#ffbe21" stroke-linecap="round" stroke-miterlimit="10" stroke-width="3.52"/>
</svg>
