<svg id="Layer_1" data-name="Layer 1" xmlns="http://www.w3.org/2000/svg" width="108" height="36" viewBox="0 0 108 36">
  <title>MVP Logo</title>
  <g>
    <g>
      <path d="M105.81,18.25h0l-.08-.1c-.08-.11-.17-.21-.25-.31l-.16-.18-.21-.24-.19-.2-.2-.19-.21-.21-.18-.16-.26-.22,0,0a8.75,8.75,0,0,0-.78-.58l0,0-.37-.24-.09-.06-.39-.22-.08,0-.41-.21,0,0A10.79,10.79,0,0,0,88.6,31.28h0a.76.76,0,0,1,.08.11l.25.3c0,.07.11.12.16.18l.21.24.19.2.2.2a2.09,2.09,0,0,0,.22.2,1.29,1.29,0,0,0,.17.16l.26.22,0,0c.25.21.51.4.77.58l0,0a4,4,0,0,0,.38.24l.08.06.39.22.08,0,.41.22h0a10.79,10.79,0,0,0,13.26-16.25ZM92.89,24.76a4.21,4.21,0,0,1,.4-1.81h0a4.33,4.33,0,0,1,3.92-2.5h.26l.23,0,.3.05.25,0,.34.1.35.13.2.1.31.17.14.09.42.31a.46.46,0,0,0,.07.07,3.85,3.85,0,0,1,.35.35l0,.05a4.34,4.34,0,0,1,.65,1h0a4.34,4.34,0,0,1,.41,1.83,4.29,4.29,0,0,1-.41,1.82h0a4.31,4.31,0,0,1-3.92,2.5H97l-.24,0-.3,0L96.16,29l-.34-.1-.35-.13-.2-.1L95,28.45l-.14-.09a4,4,0,0,1-.41-.31L94.33,28c-.12-.11-.24-.23-.35-.35l0-.05a4.34,4.34,0,0,1-.65-1h0A4.3,4.3,0,0,1,92.89,24.76Z" fill="#231f20"/>
      <g>
        <rect x="65.1" y="14.93" width="6.64" height="19.67" rx="0.73" fill="#231f20"/>
        <path d="M71.74,17.64h0a4.15,4.15,0,0,1,4.12-2.71h0a.61.61,0,0,1,.6.63V21a.63.63,0,0,1-.7.62l-.26,0c-1.9,0-3.8.9-3.8,3.43Z" fill="#231f20"/>
      </g>
      <rect x="78.04" y="14.93" width="6.64" height="19.67" rx="0.73" fill="#231f20"/>
      <path d="M55.25,29.09a4.32,4.32,0,1,1,3.49-6.87.72.72,0,0,0,1.09.07l3.57-3.57a.75.75,0,0,0,0-1,10.8,10.8,0,1,0,0,14.07.75.75,0,0,0,0-1l-3.57-3.57a.73.73,0,0,0-1.1.08A4.3,4.3,0,0,1,55.25,29.09Z" fill="#231f20"/>
    </g>
    <g>
      <rect x="2.25" y="14.69" width="37.49" height="20.79" rx="2.65" transform="translate(41.88 50.27) rotate(-179.75)" fill="#3a76ff"/>
      <rect x="1.55" y="10.94" width="36.86" height="20.79" rx="2.63" transform="translate(34.54 46.69) rotate(-166.75)" fill="#20c9de"/>
      <rect x="1.86" y="6.72" width="36.05" height="20.79" rx="2.6" transform="translate(29.53 41.51) rotate(-152.3)" fill="#44f59a"/>
    </g>
  </g>
</svg>
